<svg width="200" height="57" viewBox="0 0 200 57" fill="none" xmlns="http://www.w3.org/2000/svg">
<g clip-path="url(#clip0_1_90)">
<path d="M53.8409 41L58.1875 14.8182H66.6378C68.4957 14.8182 69.9915 15.1506 71.125 15.8153C72.267 16.4801 73.0554 17.4048 73.4901 18.5895C73.9332 19.7656 74.0312 21.1207 73.7841 22.6548C73.5284 24.1719 72.983 25.5142 72.1477 26.6818C71.321 27.8494 70.2301 28.7656 68.875 29.4304C67.5199 30.0866 65.9219 30.4148 64.081 30.4148H56.8963L57.267 28.2287H64.3878C65.7599 28.2287 66.9361 28.0028 67.9162 27.5511C68.8963 27.0994 69.6804 26.456 70.2685 25.6207C70.8565 24.7855 71.2443 23.7969 71.4318 22.6548C71.6193 21.5043 71.5554 20.5028 71.2401 19.6506C70.9332 18.7983 70.3622 18.1378 69.527 17.669C68.7003 17.2003 67.5966 16.9659 66.2159 16.9659H60.2202L56.2315 41H53.8409ZM67.3409 29.1875L71.8281 41H69.0795L64.669 29.1875H67.3409ZM76.5902 41H74.0845L87.9553 14.8182H90.5121L95.6896 41H93.184L88.8246 17.9247H88.6584L76.5902 41ZM80.0675 30.9645H93.0561L92.6982 33.1122H79.7095L80.0675 30.9645ZM122.405 23H120.027C120.002 22.1051 119.823 21.2784 119.49 20.5199C119.158 19.7528 118.694 19.0838 118.097 18.5128C117.5 17.9418 116.789 17.4986 115.962 17.1832C115.144 16.8679 114.228 16.7102 113.213 16.7102C111.543 16.7102 109.945 17.1491 108.419 18.027C106.894 18.8963 105.581 20.1747 104.482 21.8622C103.382 23.5497 102.632 25.6122 102.232 28.0497C101.831 30.4531 101.895 32.4773 102.424 34.1222C102.952 35.7585 103.817 36.9986 105.019 37.8423C106.229 38.6861 107.648 39.108 109.276 39.108C110.316 39.108 111.313 38.9503 112.267 38.6349C113.222 38.3196 114.1 37.8807 114.901 37.3182C115.702 36.7472 116.405 36.0781 117.01 35.3111C117.615 34.544 118.084 33.7131 118.417 32.8182H120.82C120.402 34.0199 119.819 35.1406 119.069 36.1804C118.319 37.2116 117.432 38.1151 116.409 38.8906C115.395 39.6662 114.275 40.2713 113.047 40.706C111.828 41.1406 110.533 41.358 109.161 41.358C106.928 41.358 105.04 40.7997 103.498 39.6832C101.963 38.5668 100.873 36.9943 100.225 34.9659C99.5856 32.929 99.4961 30.5298 99.9563 27.7685C100.408 25.0582 101.273 22.706 102.551 20.7116C103.838 18.7173 105.415 17.179 107.282 16.0966C109.148 15.0057 111.176 14.4602 113.367 14.4602C114.765 14.4602 116.017 14.6776 117.125 15.1122C118.233 15.5384 119.175 16.1435 119.951 16.9276C120.735 17.7031 121.336 18.6065 121.753 19.6378C122.171 20.669 122.388 21.7898 122.405 23ZM125.067 41L129.414 14.8182H131.805L129.81 26.8224H144.665L146.66 14.8182H149.05L144.704 41H142.313L144.308 28.9702H129.452L127.458 41H125.067ZM151.646 41L155.992 14.8182H171.18L170.822 16.9659H158.025L156.388 26.8224H168.38L168.022 28.9702H156.031L154.394 38.8523H167.447L167.089 41H151.646ZM173.021 41L177.367 14.8182H179.758L175.769 38.8523H188.246L187.888 41H173.021Z" fill="black"/>
<g opacity="0.1">
<path opacity="0.1" d="M57.4188 -4.84525L57.0511 52.8355" stroke="#20263C" stroke-miterlimit="10" stroke-dasharray="5.77 5.77"/>
<path opacity="0.1" d="M57.0416 54.3147L57.0318 55.8533L55.5806 55.8524" stroke="#20263C" stroke-miterlimit="10"/>
<path opacity="0.1" d="M52.7931 55.8506L-1.63162 55.817" stroke="#20263C" stroke-miterlimit="10" stroke-dasharray="5.77 5.77"/>
</g>
<path d="M32.1899 25.042C31.4974 25.0415 30.819 25.2715 30.2407 25.7029C29.6624 26.1341 29.2101 26.7475 28.9411 27.465C28.6721 28.1827 28.5984 28.9723 28.7294 29.7341C28.8605 30.4959 29.1903 31.1955 29.6772 31.7446C30.1641 32.2936 30.7861 32.6672 31.4646 32.8182C32.1431 32.9692 32.8475 32.8909 33.4887 32.5929C34.13 32.295 34.6791 31.791 35.0667 31.1446C35.4543 30.4983 35.6629 29.7386 35.6663 28.9619C35.6706 27.9222 35.3071 26.9255 34.6553 26.1906C34.0036 25.4557 33.1169 25.0426 32.1899 25.042Z" fill="#CE9EFF"/>
<path d="M21.2273 28.9523C21.232 28.176 21.0313 27.4169 20.6507 26.771C20.2699 26.1252 19.7263 25.6218 19.0886 25.3242C18.4509 25.0267 17.7476 24.9484 17.0677 25.0995C16.3879 25.2505 15.7621 25.624 15.2693 26.1726C14.7765 26.7213 14.4389 27.4206 14.2993 28.182C14.1597 28.9434 14.2242 29.7327 14.4848 30.4502C14.7454 31.1677 15.1903 31.7811 15.7633 32.2128C16.3363 32.6445 17.0116 32.8752 17.7038 32.8756C18.632 32.8762 19.5247 32.4633 20.1855 31.7275C20.8463 30.9917 21.2211 29.9935 21.2273 28.9523Z" fill="#FD91FF"/>
<path d="M35.5938 41.0087C35.5985 40.2323 35.3978 39.4732 35.0171 38.8274C34.6364 38.1816 34.0928 37.6781 33.4551 37.3806C32.8174 37.083 32.1141 37.0048 31.4342 37.1559C30.7544 37.3069 30.1285 37.6803 29.6358 38.2291C29.143 38.7777 28.8054 39.477 28.6658 40.2383C28.5262 40.9998 28.5907 41.7891 28.8513 42.5065C29.1119 43.224 29.5568 43.8374 30.1298 44.2691C30.7027 44.7008 31.378 44.9316 32.0703 44.932C32.9985 44.9326 33.8912 44.5196 34.552 43.7839C35.2128 43.048 35.5876 42.0498 35.5938 41.0087Z" fill="#CE9EFF"/>
<path d="M43.2968 28.9669C43.2907 29.7437 43.4902 30.5036 43.8701 31.1504C44.2499 31.7973 44.793 32.302 45.4306 32.6007C46.0682 32.8995 46.7717 32.9788 47.452 32.8287C48.1322 32.6786 48.7588 32.3058 49.2523 31.7574C49.7457 31.209 50.084 30.5098 50.2242 29.7482C50.3645 28.9865 50.3003 28.1969 50.0399 27.4789C49.7795 26.761 49.3347 26.1471 48.7616 25.715C48.1884 25.2829 47.5129 25.052 46.8203 25.0516C45.8933 25.051 45.0017 25.4629 44.3411 26.197C43.6805 26.931 43.305 27.9272 43.2968 28.9669Z" fill="#FD91FF"/>
<path d="M32.6196 20.7592C33.3119 20.7596 33.99 20.5299 34.5681 20.0989C35.1462 19.6679 35.5985 19.0552 35.8678 18.338C36.137 17.6209 36.211 16.8317 36.0806 16.0701C35.9501 15.3085 35.621 14.6088 35.1348 14.0594C34.6487 13.5102 34.0273 13.1359 33.3493 12.984C32.6712 12.8321 31.967 12.9093 31.3258 13.206C30.6844 13.5027 30.1348 14.0056 29.7463 14.6508C29.3579 15.2961 29.148 16.055 29.1433 16.8313C29.137 17.8725 29.4998 18.8712 30.1517 19.6079C30.8037 20.3445 31.6914 20.7586 32.6196 20.7592Z" fill="#CE9EFF"/>
<path d="M27.3444 37.8884C28.6126 36.4849 30.3213 35.6978 32.0974 35.6989C33.8735 35.7001 35.5728 36.4894 36.824 37.8946C37.3108 38.4424 37.9322 38.8151 38.6098 38.9658C39.2875 39.1164 39.9909 39.0382 40.6315 38.741C41.272 38.4439 41.8208 37.9411 42.2086 37.2961C42.5965 36.6512 42.806 35.893 42.8107 35.1172C42.8153 34.3415 42.615 33.583 42.2349 32.9376C41.8548 32.2921 41.312 31.7885 40.6751 31.4906C40.0381 31.1926 39.3357 31.1134 38.6562 31.2632C37.9767 31.413 37.3509 31.7849 36.8575 32.332C36.2302 33.037 35.4851 33.5965 34.6657 33.9781C33.8462 34.3597 32.9684 34.5558 32.0831 34.5553C31.1977 34.5547 30.3223 34.3574 29.5074 33.9748C28.6926 33.5921 27.9543 33.0316 27.3354 32.3258C26.8487 31.778 26.2273 31.4053 25.5496 31.2546C24.872 31.104 24.1685 31.1822 23.528 31.4794C22.8875 31.7765 22.3386 32.2793 21.9508 32.9243C21.5629 33.5692 21.3534 34.3274 21.3488 35.1032C21.3441 35.879 21.5444 36.6374 21.9246 37.2829C22.3046 37.9284 22.8474 38.4319 23.4843 38.7298C24.1213 39.0278 24.8238 39.107 25.5033 38.9572C26.1827 38.8074 26.8086 38.4355 27.3019 37.8883L27.3444 37.8884Z" fill="#2D2C2E"/>
<path d="M25.372 26.587C26.2909 26.5834 27.175 26.1794 27.8373 25.4602C29.1054 24.0568 30.8141 23.2697 32.5903 23.2708C34.3664 23.272 36.0656 24.0613 37.3169 25.4664C37.8036 26.0143 38.425 26.387 39.1026 26.5376C39.7802 26.6883 40.4838 26.6101 41.1242 26.3129C41.7648 26.0158 42.3136 25.513 42.7015 24.868C43.0893 24.2231 43.2988 23.4648 43.3035 22.6891C43.3082 21.9133 43.1078 21.1549 42.7277 20.5094C42.3476 19.8639 41.8049 19.3604 41.1679 19.0624C40.531 18.7645 39.8284 18.6853 39.149 18.8351C38.4696 18.9849 37.8436 19.3568 37.3503 19.9039C36.7231 20.6077 35.9785 21.1662 35.1597 21.5471C34.3409 21.928 33.4639 22.1237 32.5795 22.1232C31.6949 22.1226 30.8203 21.9257 30.0061 21.5437C29.1918 21.1617 28.4541 20.6023 27.8353 19.8977C27.4288 19.4455 26.9287 19.1131 26.3791 18.9299C25.8296 18.7466 25.2474 18.7181 24.684 18.847C24.1206 18.9758 23.5932 19.258 23.1485 19.6686C22.7037 20.0792 22.3552 20.6056 22.1337 21.2015C21.9121 21.7973 21.8244 22.4442 21.8782 23.0851C21.932 23.726 22.1257 24.3413 22.4422 24.8766C22.7586 25.4119 23.1882 25.8509 23.6929 26.1547C24.1977 26.4586 24.7621 26.6179 25.3364 26.6188L25.372 26.587Z" fill="#2D2C2E"/>
</g>
<defs>
<clipPath id="clip0_1_90">
<rect width="200" height="57" fill="white"/>
</clipPath>
</defs>
</svg>
